<?xml version="1.0" encoding="utf-8"?>
<!-- Generator: Adobe Illustrator 26.3.1, SVG Export Plug-In . SVG Version: 6.00 Build 0)  -->
<svg version="1.1" id="Layer_1" xmlns="http://www.w3.org/2000/svg" xmlns:xlink="http://www.w3.org/1999/xlink" x="0px" y="0px"
	 viewBox="0 0 30.1 30.1" style="enable-background:new 0 0 30.1 30.1;" xml:space="preserve">
<g>
	<polygon points="26.2,6.1 21.4,3.7 20,3.7 19,4.5 12.2,18.3 11.9,19.4 13.1,25.3 13.3,25.8 13.8,25.8 13.9,25.8 17.5,23.9 
		17.2,23.2 15.9,23.9 13.3,22.7 12.8,19.2 12.8,18.6 12.9,18.3 14.6,17.7 15.4,18.2 15.9,19.6 16.8,20 18.2,19.6 19,20 19.5,21.6 
		19.5,21.9 19,22.3 17.2,23.2 17.5,23.9 19.4,23 20,22.2 20.5,21.4 20.5,21.4 26.2,9.9 25.5,9.7 25,10.7 20.7,8.6 16.2,17.5 
		15.9,17.7 15.4,17.4 15.4,17 19.9,8.1 18.3,7.4 19.5,5.2 21,6 21.5,5 21.8,4.7 22.2,4.9 22.2,5.4 21.8,6.4 26,8.6 25.5,9.7 
		26.2,9.9 27,8.4 27,7.1 	"/>
	<g>
		<polygon points="11.7,20.2 3.1,20.2 3.1,21.6 11.8,21.6 		"/>
		<polygon points="21.9,20.1 21.2,21.6 24.8,21.5 24.8,20.1 		"/>
		<polygon points="7.7,24.1 3.1,24.1 3.1,22.7 4.9,22.7 7.7,22.7 		"/>
		<polygon points="6.7,19.2 3.1,19.2 3.1,17.8 4.8,17.8 6.7,17.8 		"/>
		<polygon points="11.8,17.8 7.4,17.8 7.4,19.2 11.6,19.2 		"/>
		<g>
			<polygon points="13.2,26.5 3.1,26.5 3.1,25.1 13.7,25.1 			"/>
		</g>
	</g>
	<polygon points="20.5,22.7 20.2,23.4 19.4,24.1 27,24.1 27,22.7 	"/>
	<polygon points="23.2,17.6 22.4,19.1 26.2,19 26.2,17.6 	"/>
	<polygon points="8.6,22.7 8.6,24.1 12.3,24.1 12.1,22.7 	"/>
</g>
</svg>
