<svg id="linearPair" xmlns="http://www.w3.org/2000/svg" viewBox="0 0 51.65 23.5"><defs><style>.cls-1{fill:aqua;}.cls-2{fill:#000029;}</style></defs><polygon class="cls-1" points="20.76 20.15 20.76 21.3 31.65 20.66 31.65 19.5 20.76 20.15"/><polygon class="cls-2" points="17.55 15.84 17.26 14.84 16.92 13.88 16.54 12.98 16.12 12.12 15.65 11.31 15.16 10.54 14.09 9.13 12.94 7.89 11.75 6.82 10.55 5.89 9.96 5.48 9.95 5.48 9.94 5.47 9.9 5.46 9.88 5.45 7.18 1.95 2.16 0 3.86 3.86 0 5.56 5.02 7.51 9.68 6.7 10.74 7.49 11.79 8.4 12.83 9.45 13.81 10.64 14.7 11.97 15.11 12.7 15.48 13.46 15.82 14.25 16.13 15.09 16.38 15.97 16.6 16.89 14.16 16.89 14.16 23.5 20.76 23.5 20.76 16.89 17.78 16.89 17.55 15.84"/><polygon class="cls-2" points="48.91 2.4 46.58 1.97 44.32 1.37 43.28 1 42.32 0.6 44.7 3.9 43.42 4.58 41.99 5.48 40.49 6.61 39.74 7.26 38.99 7.98 38.27 8.77 37.58 9.62 36.93 10.55 36.32 11.54 35.77 12.62 35.29 13.76 34.89 14.99 34.57 16.3 31.65 16.3 31.65 22.9 38.25 22.9 38.25 16.3 35.75 16.3 36.06 15.13 36.43 14.03 36.88 13 37.38 12.04 37.93 11.14 38.52 10.31 39.15 9.54 39.8 8.82 41.15 7.56 42.51 6.52 43.82 5.69 45.01 5.04 44.74 9.05 45.34 8.19 46.03 7.33 47.63 5.63 49.38 4.03 51.12 2.65 48.91 2.4"/></svg>