<?xml version="1.0" encoding="utf-8"?>
<!-- Generator: Adobe Illustrator 26.3.1, SVG Export Plug-In . SVG Version: 6.00 Build 0)  -->
<svg version="1.1" id="Layer_1" xmlns="http://www.w3.org/2000/svg" xmlns:xlink="http://www.w3.org/1999/xlink" x="0px" y="0px"
	 viewBox="0 0 30.1 30.1" style="enable-background:new 0 0 30.1 30.1;" xml:space="preserve">
<g>
	<polygon points="24.8,14.7 24.6,15.1 24.3,15.5 23.8,15.7 23.3,15.7 22.9,15.5 22.5,15.1 22.3,14.7 22.3,14.2 22.5,13.7 22.9,13.4 
		23.3,13.2 23.8,13.2 24.3,13.4 24.6,13.7 24.8,14.2 24.8,14.7 24.8,14.7 26.3,14.7 26.3,13.9 25.9,12.9 25.1,12.1 24.9,12 
		24.8,4.8 24.7,4.5 24.5,4.1 24.2,3.9 23.8,3.8 23.4,3.8 23,3.9 22.7,4.1 22.4,4.5 22.3,4.8 22.3,12 21.6,12.5 21,13.4 20.8,14.4 
		21,15.5 21.6,16.4 22.3,16.8 22.3,25.3 22.4,25.7 22.7,26 23,26.2 23.4,26.4 23.8,26.4 24.2,26.2 24.5,26 24.7,25.7 24.8,25.3 
		24.9,16.8 25.5,16.4 26.1,15.5 26.3,14.7 24.8,14.7 	"/>
</g>
<g>
	<polygon points="16.7,18.7 16.5,19.1 16.1,19.5 15.7,19.7 15.2,19.7 14.7,19.5 14.4,19.1 14.2,18.7 14.2,18.2 14.4,17.7 14.7,17.4 
		15.2,17.2 15.7,17.2 16.1,17.4 16.5,17.7 16.7,18.2 16.7,18.7 16.7,18.7 18.1,18.7 18.1,17.9 17.7,16.9 16.9,16.1 16.7,16 
		16.7,4.8 16.5,4.5 16.3,4.1 16,3.9 15.6,3.8 15.2,3.8 14.8,3.9 14.5,4.1 14.3,4.5 14.2,4.8 14.1,16 13.5,16.5 12.9,17.4 12.7,18.4 
		12.9,19.5 13.5,20.4 14.1,20.8 14.2,25.3 14.3,25.7 14.5,26 14.8,26.2 15.2,26.4 15.6,26.4 16,26.2 16.3,26 16.5,25.7 16.7,25.3 
		16.7,20.8 17.4,20.4 18,19.5 18.1,18.7 16.7,18.7 	"/>
</g>
<g>
	<polygon points="8.5,10.7 8.3,11.1 7.9,11.5 7.5,11.7 7,11.7 6.5,11.5 6.2,11.1 6,10.7 6,10.2 6.2,9.7 6.5,9.4 7,9.2 7.5,9.2 
		7.9,9.4 8.3,9.7 8.5,10.2 8.5,10.7 8.5,10.7 10,10.7 9.9,9.9 9.5,8.9 8.8,8.1 8.5,8 8.5,4.8 8.4,4.5 8.1,4.1 7.8,3.9 7.4,3.8 
		7,3.8 6.7,3.9 6.3,4.1 6.1,4.5 6,4.8 6,8 5.3,8.5 4.7,9.4 4.5,10.4 4.7,11.5 5.3,12.4 6,12.8 6,25.3 6.1,25.7 6.3,26 6.7,26.2 
		7,26.4 7.4,26.4 7.8,26.2 8.1,26 8.4,25.7 8.5,25.3 8.5,12.8 9.2,12.4 9.8,11.5 10,10.7 8.5,10.7 	"/>
</g>
</svg>
