<?xml version="1.0" encoding="utf-8"?>
<!-- Generator: Adobe Illustrator 26.0.0, SVG Export Plug-In . SVG Version: 6.00 Build 0)  -->
<svg version="1.1" id="Layer_1" xmlns="http://www.w3.org/2000/svg" xmlns:xlink="http://www.w3.org/1999/xlink" x="0px" y="0px"
	 viewBox="0 0 36.12 27.37" style="enable-background:new 0 0 36.12 27.37;" xml:space="preserve">
<line style="fill:none;stroke:#A3A3A3;stroke-miterlimit:10;" x1="2.93" y1="13.69" x2="33.1" y2="13.69"/>
<line style="fill:none;stroke:#A3A3A3;stroke-miterlimit:10;" x1="-0.26" y1="18.25" x2="36.74" y2="18.25"/>
<line style="fill:none;stroke:#A3A3A3;stroke-miterlimit:10;" x1="0.58" y1="22.81" x2="37.58" y2="22.81"/>
<line style="fill:none;stroke:#A3A3A3;stroke-miterlimit:10;" x1="0.58" y1="27.37" x2="37.58" y2="27.37"/>
<polygon style="fill:#000973;" points="3.56,13.2 0.86,15.9 3.5,18.54 6.19,15.86 "/>
<polygon style="fill:#000973;" points="10.73,17.97 8.02,20.67 10.66,23.32 13.35,20.63 "/>
<polygon style="fill:#000973;" points="6.9,22.58 4.2,25.28 6.84,27.93 9.53,25.24 "/>
<polygon style="fill:#6168BA;" points="25.66,13.2 22.96,15.9 25.6,18.54 28.29,15.86 "/>
<polygon style="fill:#6168BA;" points="32.83,17.97 30.12,20.67 32.76,23.32 35.45,20.63 "/>
<polygon style="fill:#6168BA;" points="29,22.58 26.3,25.28 28.94,27.93 31.62,25.24 "/>
<polygon style="fill:#C7C9FF;" points="3.04,10.95 7.57,3.33 17.73,0 26.39,3.33 28.88,10.32 30.42,8.78 28.97,13.48 23.93,11.32 
	26.47,10.49 23.6,5.24 17.52,3.33 10.95,5.66 8.53,13.23 "/>
<g>
</g>
<g>
</g>
<g>
</g>
<g>
</g>
</svg>
